<svg xmlns="http://www.w3.org/2000/svg" width="48" height="48" viewBox="0 0 512 512" fill="#6acfc7" stroke="#6acfc7" stroke-width="10">
  <path d="m481.5,199.88l-17.91,0c-4.81,-17.84 -11.89,-34.92 -21.13,-50.96l12.68,-12.69c5.75,-5.74 8.91,-13.4 8.91,-21.56c0,-8.17 -3.16,-15.82 -8.91,-21.57l-36.24,-36.24c-11.89,-11.89 -31.24,-11.89 -43.13,0l-12.68,12.68c-16.04,-9.24 -33.13,-16.33 -50.96,-21.13l0,-17.91c0,-16.82 -13.69,-30.5 -30.5,-30.5l-51.25,0c-16.82,0 -30.5,13.68 -30.5,30.5l0,17.9c-17.83,4.81 -34.92,11.9 -50.97,21.14l-12.68,-12.68c-11.89,-11.89 -31.24,-11.89 -43.13,0l-36.24,36.24c-11.89,11.89 -11.89,31.24 0,43.13l12.68,12.68c-9.24,16.04 -16.32,33.13 -21.13,50.97l-17.91,0c-16.82,0 -30.5,13.68 -30.5,30.5l0,51.25c0,16.81 13.68,30.5 30.5,30.5l17.91,0c4.8,17.83 11.89,34.91 21.13,50.96l-12.68,12.68c-11.89,11.89 -11.89,31.24 0,43.13l36.24,36.24c11.89,11.89 31.24,11.89 43.13,0l12.68,-12.68c16.05,9.24 33.13,16.33 50.97,21.14l0,17.9c0,16.82 13.68,30.5 30.5,30.5l51.25,0c16.81,0 30.5,-13.68 30.5,-30.5l0,-17.9c17.83,-4.81 34.91,-11.89 50.96,-21.14l12.68,12.68c11.89,11.89 31.24,11.89 43.13,0l36.24,-36.24c5.74,-5.74 8.91,-13.4 8.91,-21.56c0,-8.17 -3.17,-15.83 -8.91,-21.57l-12.68,-12.68c9.24,-16.04 16.32,-33.12 21.13,-50.96l17.91,0c16.82,0 30.5,-13.69 30.5,-30.5l0,-51.25c0,-16.82 -13.68,-30.5 -30.5,-30.5zm10.5,81.75c0,5.79 -4.71,10.5 -10.5,10.5l-25.71,0c-4.66,0 -8.71,3.21 -9.75,7.75c-4.85,21.08 -13.14,41.08 -24.65,59.45c-2.47,3.95 -1.89,9.09 1.41,12.38l18.2,18.2c1.97,1.97 3.05,4.6 3.05,7.43c0,2.82 -1.08,5.45 -3.05,7.42l-36.24,36.24c-4.09,4.09 -10.76,4.09 -14.85,0l-18.2,-18.2c-3.3,-3.3 -8.43,-3.88 -12.38,-1.41c-18.39,11.52 -38.39,19.81 -59.45,24.65c-4.54,1.05 -7.75,5.09 -7.75,9.75l0,25.71c0,5.79 -4.71,10.5 -10.5,10.5l-51.25,0c-5.79,0 -10.5,-4.71 -10.5,-10.5l0,-25.71c0,-4.66 -3.22,-8.71 -7.76,-9.75c-21.07,-4.85 -41.07,-13.14 -59.45,-24.65c-1.64,-1.02 -3.48,-1.52 -5.3,-1.52c-2.59,0 -5.15,1 -7.08,2.93l-18.2,18.2c-4.09,4.09 -10.75,4.09 -14.85,0l-36.24,-36.24c-4.09,-4.1 -4.09,-10.76 0,-14.85l18.2,-18.2c3.3,-3.3 3.88,-8.43 1.41,-12.38c-11.51,-18.39 -19.81,-38.39 -24.65,-59.45c-1.04,-4.54 -5.09,-7.75 -9.75,-7.75l-25.71,0c-5.79,0 -10.5,-4.71 -10.5,-10.5l0,-51.25c0,-5.79 4.71,-10.5 10.5,-10.5l25.72,0c4.65,0 8.7,-3.22 9.74,-7.76c4.85,-21.07 13.14,-41.07 24.65,-59.45c2.47,-3.95 1.89,-9.08 -1.41,-12.38l-18.2,-18.2c-4.09,-4.09 -4.09,-10.75 0,-14.85l36.24,-36.24c4.1,-4.09 10.76,-4.09 14.85,0l18.2,18.2c3.3,3.3 8.43,3.88 12.38,1.41c18.39,-11.52 38.39,-19.81 59.45,-24.65c4.54,-1.05 7.76,-5.09 7.76,-9.75l0,-25.71c0,-5.79 4.71,-10.5 10.5,-10.5l51.25,0c5.79,0 10.5,4.71 10.5,10.5l0,25.71c0,4.66 3.21,8.7 7.76,9.75c21.06,4.84 41.06,13.14 59.44,24.65c3.95,2.47 9.09,1.89 12.38,-1.41l18.2,-18.2c4.1,-4.09 10.76,-4.09 14.85,0l36.24,36.24c1.97,1.97 3.05,4.61 3.05,7.43c0,2.82 -1.08,5.45 -3.05,7.42l-18.2,18.2c-3.3,3.3 -3.88,8.43 -1.41,12.38c11.51,18.38 19.8,38.38 24.64,59.45c1.05,4.54 5.09,7.76 9.75,7.76l25.72,0c5.79,0 10.5,4.71 10.5,10.5l0,51.25z" transform="matrix(0.9999961256980896, 0, 0, 0.9999961256980896, 0, 0)"></path>
  <path d="m321.18,379.92c-19.95,10.52 -42.49,16.08 -65.18,16.08c-77.2,0 -140,-62.8 -140,-140c0,-22.69 5.56,-45.23 16.07,-65.17c2.58,-4.89 0.71,-10.94 -4.18,-13.51c-4.88,-2.58 -10.93,-0.71 -13.51,4.18c-12.02,22.81 -18.38,48.57 -18.38,74.5c0,88.23 71.78,160 160,160c25.93,0 51.7,-6.36 74.51,-18.39c4.88,-2.57 6.76,-8.62 4.18,-13.51s-8.63,-6.75 -13.51,-4.18z" transform="matrix(0.9999961256980896, 0, 0, 0.9999961256980896, 0, 0)"></path>
  <path d="m256,96c-25.93,0 -51.69,6.36 -74.51,18.39c-4.88,2.57 -6.75,8.62 -4.18,13.51s8.62,6.75 13.51,4.18c19.95,-10.52 42.49,-16.08 65.18,-16.08c77.2,0 140,62.81 140,140c0,22.69 -5.56,45.23 -16.07,65.18c-2.58,4.88 -0.71,10.93 4.18,13.51c1.49,0.78 3.08,1.15 4.65,1.15c3.6,0 7.07,-1.94 8.86,-5.34c12.02,-22.81 18.38,-48.57 18.38,-74.5c0,-88.22 -71.77,-160 -160,-160z" transform="matrix(0.9999961256980896, 0, 0, 0.9999961256980896, 0, 0)"></path>
  <path d="m317.23,183.12c-9.03,0 -17.51,3.52 -23.89,9.9l-54.32,54.32l-20.36,-20.36c-6.38,-6.38 -14.86,-9.9 -23.88,-9.9s-17.51,3.52 -23.89,9.9c-13.17,13.17 -13.17,34.59 0,47.76l44.25,44.25c6.58,6.58 15.23,9.87 23.88,9.87s17.3,-3.29 23.88,-9.87l78.21,-78.21c13.17,-13.17 13.17,-34.59 0,-47.76c-6.38,-6.38 -14.86,-9.9 -23.88,-9.9zm9.74,43.52l-78.21,78.2c-5.37,5.38 -14.11,5.38 -19.48,0l-44.25,-44.24c-5.37,-5.37 -5.37,-14.11 0,-19.48c2.61,-2.6 6.07,-4.03 9.75,-4.03s7.13,1.43 9.74,4.03l27.43,27.43c3.9,3.91 10.24,3.91 14.14,0l61.4,-61.39c2.6,-2.6 6.06,-4.04 9.74,-4.04s7.14,1.44 9.74,4.04c2.6,2.6 4.03,6.06 4.03,9.74c0,3.68 -1.43,7.14 -4.03,9.74z" transform="matrix(0.9999961256980896, 0, 0, 0.9999961256980896, 0, 0)"></path>
  <path d="m149.93,159.94c2.56,0 5.12,-0.98 7.08,-2.93c3.9,-3.91 3.9,-10.24 0,-14.15c-3.91,-3.9 -10.24,-3.9 -14.15,0l0,0.01c-3.91,3.9 -3.9,10.23 0,14.14c1.95,1.95 4.51,2.93 7.07,2.93z" transform="matrix(0.9999961256980896, 0, 0, 0.9999961256980896, 0, 0)"></path>
  <path d="m368.47,354.38c-4.24,-3.53 -10.54,-2.96 -14.08,1.28l-0.01,0.01c-3.53,4.24 -2.95,10.54 1.29,14.08c1.87,1.55 4.14,2.31 6.39,2.31c2.87,0 5.72,-1.22 7.69,-3.6c3.54,-4.24 2.97,-10.55 -1.28,-14.08z" transform="matrix(0.9999961256980896, 0, 0, 0.9999961256980896, 0, 0)"></path>
</svg>
